<?xml version="1.0" standalone="no"?>
<!DOCTYPE svg PUBLIC "-//W3C//DTD SVG 1.0//EN" "http://www.w3.org/TR/2001/REC-SVG-20010904/DTD/svg10.dtd">
<svg xmlns="http://www.w3.org/2000/svg" xmlns:xlink="http://www.w3.org/1999/xlink" id="body_1" width="667" height="667">

<defs>
    <clipPath  id="1">

    <path id=""  clip-rule="evenodd" transform="matrix(1 0 0 1 0 0)"  d="M500 0L500 500L500 500L0 500L0 500L0 0L0 0L500 0z" />    </clipPath>
</defs>

<g transform="matrix(1.3333 0 0 1.3333 0 0)">
	<g clip-path="url(#1)" >
    <path id=""  transform="matrix(1 0 0 -1 0 500)"  d="M139.4718 499.99997C 146.88193 499.99997 154.3067 497.19736 159.95602 491.53336L159.95602 491.53336L380.9978 270.4622C 392.3111 259.1489 392.3111 240.83636 380.9978 229.52309L380.9978 229.52309L159.956 8.48129C 148.6427 -2.831989 130.31552 -2.831989 119.00223 8.48129L119.00223 8.48129L119.00223 8.48129C 107.688934 19.794569 107.688934 38.121784 119.00223 49.42039L119.00223 49.42039L319.58914 249.99265L319.58914 249.99265L119.00223 450.56488L119.00223 450.56488L119.00223 450.56488C 107.688934 461.87817 107.688934 480.22006 119.00223 491.53333L119.00223 491.53333L119.00223 491.53333C 124.65155 497.18265 132.06165 499.99997 139.4718 499.99997z" stroke="#FFFFFF" stroke-width="19.564684" fill="#010002" fill-rule="nonzero" />
	</g>
</g>
</svg>